<svg xmlns="http://www.w3.org/2000/svg" version="1.1" xmlns:xlink="http://www.w3.org/1999/xlink" xmlns:svgjs="http://svgjs.com/svgjs" width="1000" height="1000"><rect width="1000" height="1000" rx="200" ry="200" fill="#0088f4"></rect><g transform="matrix(2.1621621621621623,0,0,2.1621621621621623,100.10704638506911,100.22412532084695)"><svg xmlns="http://www.w3.org/2000/svg" version="1.1" xmlns:xlink="http://www.w3.org/1999/xlink" xmlns:svgjs="http://svgjs.com/svgjs" width="370" height="370"><svg width="370" height="370" viewBox="0 0 370 370" fill="none" xmlns="http://www.w3.org/2000/svg">
<g clip-path="url(#clip0_1365_2632)">
<path d="M185.308 40.2C206.908 40.2 226.374 43.6667 243.708 50.6C261.041 57.5333 275.708 67.4 287.708 80.2C299.708 92.7333 308.908 107.8 315.308 125.4C321.708 143 324.908 162.467 324.908 183.8C324.908 204.6 321.708 223.933 315.308 241.8C308.908 259.667 299.708 275.133 287.708 288.2C275.708 301.267 260.908 311.533 243.308 319C225.974 326.2 206.241 329.667 184.108 329.4C161.974 329.4 142.241 325.8 124.908 318.6C107.841 311.133 93.3078 301 81.3078 288.2C69.5745 275.4 60.5078 260.2 54.1078 242.6C47.9745 225 44.9078 205.8 44.9078 185C44.9078 163.667 48.1078 144.2 54.5078 126.6C61.1745 108.733 70.5078 93.4 82.5078 80.6C94.7745 67.8 109.574 57.9333 126.908 51C144.241 43.8 163.708 40.2 185.308 40.2ZM104.508 184.2C104.508 196.467 106.108 208.2 109.308 219.4C112.774 230.333 117.708 240.067 124.108 248.6C130.774 257.133 139.174 264.067 149.308 269.4C159.441 274.467 171.308 277.133 184.908 277.4C197.974 277.667 209.574 275.4 219.708 270.6C229.841 265.533 238.241 258.733 244.908 250.2C251.574 241.4 256.641 231.4 260.108 220.2C263.574 208.733 265.308 196.867 265.308 184.6C265.308 172.6 263.574 161 260.108 149.8C256.908 138.6 251.974 128.733 245.308 120.2C238.908 111.4 230.641 104.467 220.508 99.4C210.374 94.3333 198.508 91.8 184.908 91.8C171.574 91.8 159.841 94.3333 149.708 99.4C139.574 104.467 131.174 111.267 124.508 119.8C117.841 128.333 112.774 138.2 109.308 149.4C106.108 160.333 104.508 171.933 104.508 184.2Z" fill="white"></path>
</g>
<defs>
<clipPath id="clip0_1365_2632">
<rect width="370" height="370" rx="60" fill="white"></rect>
</clipPath>
</defs>
</svg></svg></g></svg>