<svg width="1650" height="767.44" viewBox="0 0 1650 767.44" fill="none" xmlns="http://www.w3.org/2000/svg" xmlns:xlink="http://www.w3.org/1999/xlink">
<style>._01_901 {
	animation: 3.2s linear 0s 1 normal forwards running _01_901;
		opacity: 1;
}
@keyframes _01_901 {
	0% {
		opacity: 1;
	}
	15.63% {
		opacity: 1;
	}
	25% {
		opacity: 0;
	}
	84.38% {
		opacity: 0;
	}
	93.75% {
		opacity: 1;
	}
	100% {
		opacity: 1;
	}
}._02_622 {
	animation: 3.2s linear 0s 1 normal forwards running _02_622;
		opacity: 0;
}
@keyframes _02_622 {
	0% {
		opacity: 0;
	}
	9.38% {
		opacity: 0;
	}
	18.75% {
		opacity: 1;
	}
	40.63% {
		opacity: 1;
	}
	50% {
		opacity: 0;
	}
	100% {
		opacity: 0;
	}
}._03_689 {
	animation: 3.2s linear 0s 1 normal forwards running _03_689;
		opacity: 0;
}
@keyframes _03_689 {
	0% {
		opacity: 0;
	}
	34.38% {
		opacity: 0;
	}
	43.75% {
		opacity: 1;
	}
	65.63% {
		opacity: 1;
	}
	75% {
		opacity: 0;
	}
	100% {
		opacity: 0;
	}
}._04_571 {
	animation: 3.2s linear 0s 1 normal forwards running _04_571;
		opacity: 0;
}
@keyframes _04_571 {
	0% {
		opacity: 0;
	}
	59.38% {
		opacity: 0;
	}
	68.75% {
		opacity: 1;
	}
	90.63% {
		opacity: 1;
	}
	100% {
		opacity: 0;
	}
}
</style>
<g clip-path="url(#clip_0_234)" width="1650" height="767.44" data-name="Onest">
	<path d="M114.144 368.09C114.144 386.134 116.498 403.393 121.205 419.867C126.304 435.949 133.561 450.266 142.975 462.818C152.781 475.37 165.137 485.569 180.042 493.414C194.948 500.866 212.403 504.789 232.407 505.181C251.627 505.573 268.69 502.239 283.596 495.179C298.501 487.726 310.857 477.724 320.663 465.172C330.469 452.228 337.922 437.518 343.021 421.044C348.12 404.177 350.67 386.722 350.67 368.679C350.67 351.028 348.12 333.965 343.021 317.49C338.314 301.016 331.058 286.503 321.251 273.951C311.837 261.007 299.678 250.808 284.772 243.355C269.867 235.903 252.412 232.176 232.407 232.176C212.795 232.176 195.536 235.903 180.63 243.355C165.725 250.808 153.369 260.81 143.563 273.362C133.757 285.914 126.304 300.428 121.205 316.902C116.498 332.984 114.144 350.047 114.144 368.09Z" fill="white" data-name="01" class="01_901"/>
	<path d="M1022.35 366.325C1025.88 373.778 1027.65 382.407 1027.65 392.213H893.497C895.459 374.562 902.127 360.441 913.502 349.851C925.269 338.868 941.548 333.18 962.337 332.788C970.966 332.788 979.203 333.965 987.048 336.318C995.286 338.672 1002.35 342.398 1008.23 347.497C1014.11 352.204 1018.82 358.48 1022.35 366.325Z" fill="white" data-name="01" class="01_901"/>
	<path fill-rule="evenodd" clip-rule="evenodd" d="M1650 0H0V767H1650V0ZM232.996 156.276C264.768 156.276 293.402 161.376 318.898 171.574C344.394 181.772 365.968 196.286 383.619 215.114C401.27 233.549 414.803 255.711 424.217 281.6C433.631 307.488 438.337 336.122 438.337 367.502C438.337 398.097 433.631 426.535 424.217 452.816C414.803 479.097 401.27 501.847 383.619 521.067C365.968 540.287 344.198 555.389 318.31 566.372C292.813 576.962 263.787 582.062 231.23 581.669C198.674 581.669 169.648 576.374 144.151 565.783C119.048 554.8 97.67 539.895 80.0188 521.067C62.7599 502.239 49.4235 479.881 40.0096 453.993C30.9878 428.104 26.477 399.862 26.477 369.267C26.477 337.887 31.184 309.253 40.5979 283.365C50.4041 257.084 64.1328 234.53 81.784 215.702C99.8274 196.874 121.597 182.361 147.093 172.162C172.589 161.572 201.224 156.276 232.996 156.276ZM560.939 307.489C586.043 277.286 617.031 261.988 653.902 261.596C673.907 261.204 691.558 264.538 706.855 271.598C722.153 278.266 734.509 287.484 743.923 299.252C755.298 312.98 763.143 329.062 767.458 347.498C771.773 365.542 773.93 385.742 773.93 408.1V578.14H690.381V414.573C690.381 403.59 689.204 393.195 686.851 383.389C684.89 373.19 681.359 364.561 676.26 357.5C671.161 350.048 664.297 344.556 655.667 341.026C647.43 337.496 638.016 335.731 627.425 335.731C614.089 336.123 602.714 339.065 593.3 344.556C584.278 350.048 577.414 357.108 572.707 365.738C568 373.975 564.665 383.389 562.704 393.98C561.135 404.178 560.351 414.573 560.351 425.163V578.14H477.39V268.068H556.821L560.939 307.489ZM993.521 509.888C985.283 513.418 975.281 515.183 963.514 515.183C940.763 515.183 923.7 508.907 912.325 496.355C900.95 483.411 894.478 467.721 892.909 449.286H1104.72C1109.04 423.397 1109.04 399.078 1104.72 376.327C1100.8 353.577 1092.76 333.768 1080.6 316.902C1068.83 299.643 1052.75 286.11 1032.35 276.304C1011.96 266.498 987.833 261.595 959.983 261.595C936.056 261.595 914.679 265.517 895.851 273.362C877.415 281.207 861.921 292.386 849.369 306.899C836.817 321.02 827.011 337.887 819.951 357.499C813.283 377.112 809.948 398.489 809.948 421.632C809.948 472.624 822.697 512.241 848.193 540.483C874.081 568.725 912.129 582.846 962.337 582.846C978.811 582.846 994.501 581.277 1009.41 578.139C1024.31 574.609 1037.84 569.117 1050 561.665C1062.56 554.212 1073.15 544.602 1081.78 532.834C1090.8 521.067 1097.47 507.142 1101.78 491.06H1014.7C1009.21 499.689 1002.15 505.965 993.521 509.888ZM1260.68 328.081C1254.79 328.081 1249.11 328.473 1243.62 329.258C1238.52 330.042 1233.81 331.415 1229.49 333.376C1225.18 334.945 1221.65 337.691 1218.9 341.613C1216.16 345.144 1214.98 349.851 1215.37 355.734C1215.77 362.403 1218.32 367.698 1223.02 371.62C1228.12 375.543 1235.18 378.681 1244.2 381.034C1252.83 383.388 1262.44 385.741 1273.03 388.095C1283.62 390.056 1294.02 392.213 1304.22 394.567C1314.42 396.92 1324.42 399.666 1334.22 402.804C1344.03 405.942 1352.66 409.865 1360.11 414.572C1370.31 420.848 1378.74 429.673 1385.41 441.048C1392.08 452.423 1395.22 466.348 1394.83 482.823C1394.83 498.905 1392.08 512.83 1386.59 524.597C1381.49 535.972 1374.43 545.779 1365.41 554.016C1354.03 564.214 1339.72 571.667 1322.46 576.374C1305.2 580.689 1287.74 582.846 1270.09 582.846C1249.7 582.846 1230.87 580.689 1213.61 576.374C1196.74 572.059 1181.25 564.41 1167.13 553.427C1156.93 545.19 1148.3 535.188 1141.24 523.42C1134.57 511.261 1130.65 496.748 1129.47 479.881H1213.02C1215.37 493.217 1221.85 502.435 1232.44 507.534C1243.42 512.634 1256.36 515.183 1271.27 515.183C1275.58 515.183 1280.09 514.987 1284.8 514.595C1289.9 513.81 1294.41 512.634 1298.33 511.065C1302.65 509.103 1306.18 506.358 1308.92 502.827C1312.06 498.905 1313.63 494.786 1313.63 490.472C1314.02 480.273 1310.49 473.017 1303.04 468.702C1295.98 464.387 1288.33 461.445 1280.09 459.876C1271.86 457.915 1263.03 455.954 1253.62 453.992L1225.38 448.109C1216.35 446.148 1207.33 443.794 1198.31 441.048C1189.29 437.91 1181.05 433.792 1173.6 428.692C1162.22 421.632 1152.61 412.218 1144.77 400.451C1137.32 388.683 1134.18 373.189 1135.35 353.969C1136.14 337.103 1140.26 322.785 1147.71 311.018C1155.56 298.858 1165.17 289.248 1176.54 282.188C1188.31 274.735 1201.45 269.44 1215.96 266.302C1230.87 263.164 1245.97 261.595 1261.27 261.595C1278.13 261.595 1294.02 263.36 1308.92 266.89C1323.83 270.42 1336.77 276.108 1347.76 283.953C1359.13 291.798 1368.15 301.996 1374.82 314.548C1381.88 327.1 1385.81 342.398 1386.59 360.441H1306.57C1305 347.497 1299.9 338.868 1291.27 334.553C1283.04 330.238 1272.84 328.081 1260.68 328.081ZM1602.21 505.513C1594.37 507.867 1587.31 509.044 1581.03 509.044C1571.62 509.044 1563.77 507.475 1557.5 504.337C1551.61 500.807 1546.91 496.296 1543.38 490.804C1540.24 485.313 1538.08 479.429 1536.9 473.153C1536.12 466.485 1535.73 459.62 1535.73 452.56V340.769H1626.93V268.4H1535.73V183.674H1452.77V268.4H1405.7V340.769H1452.77V471.976C1452.77 489.235 1454.73 504.729 1458.65 518.458C1462.97 532.186 1469.44 543.365 1478.07 551.995C1487.48 562.193 1499.25 569.842 1513.37 574.941C1527.88 580.041 1544.55 582.59 1563.38 582.59C1569.27 582.59 1575.74 582.198 1582.8 581.413C1589.86 580.629 1597.31 579.256 1605.16 577.295C1613.39 574.941 1620.85 572.392 1627.51 569.646C1634.57 566.508 1640.85 563.174 1646.34 559.644L1622.81 496.688C1616.92 500.218 1610.06 503.16 1602.21 505.513Z" fill="white" data-name="01" class="01_901"/>
	<path d="M114.144 368.09C114.144 386.134 116.498 403.393 121.205 419.867C126.304 435.949 133.561 450.266 142.975 462.818C152.781 475.37 165.137 485.569 180.042 493.414C194.948 500.866 212.403 504.789 232.407 505.181C251.627 505.573 268.69 502.239 283.596 495.179C298.501 487.726 310.857 477.724 320.663 465.172C330.469 452.228 337.922 437.518 343.021 421.044C348.12 404.177 350.67 386.722 350.67 368.679C350.67 351.027 348.12 333.965 343.021 317.49C338.314 301.016 331.058 286.503 321.251 273.951C311.837 261.007 299.678 250.808 284.772 243.355C269.867 235.903 252.412 232.176 232.407 232.176C212.795 232.176 195.536 235.903 180.63 243.355C165.725 250.808 153.369 260.81 143.563 273.362C133.757 285.914 126.304 300.427 121.205 316.902C116.498 332.984 114.144 350.047 114.144 368.09Z" fill="white" data-name="02" class="02_622"/>
	<path d="M1022.35 366.325C1025.88 373.778 1027.65 382.407 1027.65 392.213H893.497C895.459 374.562 902.127 360.441 913.502 349.851C925.269 338.868 941.548 333.18 962.337 332.788C970.966 332.788 979.203 333.965 987.048 336.318C995.286 338.672 1002.35 342.398 1008.23 347.497C1014.11 352.204 1018.82 358.48 1022.35 366.325Z" fill="white" data-name="02" class="02_622"/>
	<path fill-rule="evenodd" clip-rule="evenodd" d="M1650 0H0V767H1650V0ZM232.996 156.276C264.768 156.276 293.402 161.376 318.898 171.574C344.394 181.772 365.968 196.286 383.619 215.114C401.27 233.549 414.803 255.711 424.217 281.6C433.631 307.488 438.337 336.122 438.337 367.502C438.337 398.097 433.631 426.535 424.217 452.816C414.803 479.096 401.27 501.847 383.619 521.067C365.968 540.287 344.198 555.389 318.31 566.372C292.813 576.962 263.787 582.062 231.23 581.669C198.674 581.669 169.648 576.374 144.151 565.783C119.048 554.8 97.67 539.895 80.0188 521.067C62.7599 502.239 49.4235 479.881 40.0096 453.993C30.9878 428.104 26.477 399.862 26.477 369.267C26.477 337.887 31.184 309.253 40.5979 283.365C50.4041 257.084 64.1328 234.53 81.784 215.702C99.8274 196.874 121.597 182.361 147.093 172.162C172.589 161.572 201.224 156.276 232.996 156.276ZM560.939 307.489C586.043 277.286 617.031 261.988 653.902 261.596C673.907 261.203 691.558 264.538 706.855 271.598C722.153 278.266 734.509 287.484 743.923 299.252C755.298 312.98 763.143 329.062 767.458 347.498C771.773 365.542 773.93 385.742 773.93 408.1V578.14H690.381V414.573C690.381 403.59 689.204 393.195 686.851 383.389C684.89 373.19 681.359 364.561 676.26 357.5C671.161 350.048 664.297 344.556 655.667 341.026C647.43 337.496 638.016 335.731 627.425 335.731C614.089 336.123 602.714 339.065 593.3 344.556C584.278 350.048 577.414 357.108 572.707 365.738C568 373.975 564.665 383.389 562.704 393.979C561.135 404.178 560.351 414.573 560.351 425.163V578.14H477.39V268.068H556.821L560.939 307.489ZM993.521 509.888C985.283 513.418 975.281 515.183 963.514 515.183C940.763 515.183 923.7 508.907 912.325 496.355C900.95 483.411 894.478 467.721 892.909 449.285H1104.72C1109.04 423.397 1109.04 399.078 1104.72 376.327C1100.8 353.577 1092.76 333.768 1080.6 316.902C1068.83 299.643 1052.75 286.11 1032.35 276.304C1011.96 266.498 987.833 261.595 959.983 261.595C936.056 261.595 914.679 265.517 895.851 273.362C877.415 281.207 861.921 292.386 849.369 306.899C836.817 321.02 827.011 337.887 819.951 357.499C813.283 377.112 809.948 398.489 809.948 421.632C809.948 472.624 822.697 512.241 848.193 540.483C874.081 568.725 912.129 582.846 962.337 582.846C978.811 582.846 994.501 581.277 1009.41 578.139C1024.31 574.609 1037.84 569.117 1050 561.665C1062.56 554.212 1073.15 544.602 1081.78 532.834C1090.8 521.067 1097.47 507.142 1101.78 491.06H1014.7C1009.21 499.689 1002.15 505.965 993.521 509.888ZM1260.68 328.081C1254.79 328.081 1249.11 328.473 1243.62 329.258C1238.52 330.042 1233.81 331.415 1229.49 333.376C1225.18 334.945 1221.65 337.691 1218.9 341.613C1216.16 345.144 1214.98 349.851 1215.37 355.734C1215.77 362.403 1218.32 367.698 1223.02 371.62C1228.12 375.543 1235.18 378.681 1244.2 381.034C1252.83 383.388 1262.44 385.741 1273.03 388.095C1283.62 390.056 1294.02 392.213 1304.22 394.567C1314.42 396.92 1324.42 399.666 1334.22 402.804C1344.03 405.942 1352.66 409.865 1360.11 414.572C1370.31 420.848 1378.74 429.673 1385.41 441.048C1392.08 452.423 1395.22 466.348 1394.83 482.823C1394.83 498.905 1392.08 512.83 1386.59 524.597C1381.49 535.972 1374.43 545.779 1365.41 554.016C1354.03 564.214 1339.72 571.667 1322.46 576.374C1305.2 580.689 1287.74 582.846 1270.09 582.846C1249.7 582.846 1230.87 580.689 1213.61 576.374C1196.74 572.059 1181.25 564.41 1167.13 553.427C1156.93 545.19 1148.3 535.188 1141.24 523.42C1134.57 511.261 1130.65 496.747 1129.47 479.881H1213.02C1215.37 493.217 1221.85 502.435 1232.44 507.534C1243.42 512.634 1256.36 515.183 1271.27 515.183C1275.58 515.183 1280.09 514.987 1284.8 514.595C1289.9 513.81 1294.41 512.634 1298.33 511.065C1302.65 509.103 1306.18 506.358 1308.92 502.827C1312.06 498.905 1313.63 494.786 1313.63 490.471C1314.02 480.273 1310.49 473.016 1303.04 468.702C1295.98 464.387 1288.33 461.445 1280.09 459.876C1271.86 457.915 1263.03 455.954 1253.62 453.992L1225.38 448.109C1216.35 446.147 1207.33 443.794 1198.31 441.048C1189.29 437.91 1181.05 433.792 1173.6 428.692C1162.22 421.632 1152.61 412.218 1144.77 400.451C1137.32 388.683 1134.18 373.189 1135.35 353.969C1136.14 337.103 1140.26 322.785 1147.71 311.018C1155.56 298.858 1165.17 289.248 1176.54 282.188C1188.31 274.735 1201.45 269.44 1215.96 266.302C1230.87 263.164 1245.97 261.595 1261.27 261.595C1278.13 261.595 1294.02 263.36 1308.92 266.89C1323.83 270.42 1336.77 276.108 1347.76 283.953C1359.13 291.798 1368.15 301.996 1374.82 314.548C1381.88 327.1 1385.81 342.398 1386.59 360.441H1306.57C1305 347.497 1299.9 338.868 1291.27 334.553C1283.04 330.238 1272.84 328.081 1260.68 328.081ZM1602.21 505.513C1594.37 507.867 1587.31 509.044 1581.03 509.044C1571.62 509.044 1563.77 507.475 1557.5 504.337C1551.61 500.806 1546.91 496.296 1543.38 490.804C1540.24 485.313 1538.08 479.429 1536.9 473.153C1536.12 466.485 1535.73 459.62 1535.73 452.56V340.769H1626.93V268.4H1535.73V183.674H1452.77V268.4H1405.7V340.769H1452.77V471.976C1452.77 489.235 1454.73 504.729 1458.65 518.458C1462.97 532.186 1469.44 543.365 1478.07 551.995C1485.91 560.624 1495.52 567.489 1506.9 572.588L1487.48 642.604C1491.8 642.212 1496.9 642.016 1502.78 642.016C1509.06 642.016 1514.94 642.212 1520.43 642.604C1528.67 642.996 1535.92 644.565 1542.2 647.311C1548.87 650.449 1552.2 655.941 1552.2 663.786C1552.2 668.1 1551.22 671.827 1549.26 674.965C1547.69 678.103 1544.36 680.652 1539.26 682.613C1534.55 684.575 1527.88 685.751 1519.25 686.144C1511.02 686.928 1500.23 686.536 1486.89 684.967V733.213C1497.48 734.39 1506.7 734.979 1514.55 734.979C1522.78 735.371 1530.24 735.175 1536.9 734.39C1543.97 733.998 1550.04 733.017 1555.14 731.448C1560.64 729.879 1565.93 727.722 1571.03 724.976C1582.41 720.269 1592.21 712.424 1600.45 701.441C1608.69 690.458 1613.2 677.122 1613.98 661.432C1614.77 640.643 1608.88 625.149 1596.33 614.951C1583.78 604.752 1567.89 601.026 1548.67 603.772L1555.14 582.59H1563.38C1569.27 582.59 1575.74 582.198 1582.8 581.413C1589.86 580.629 1597.31 579.256 1605.16 577.295C1613.39 574.941 1620.85 572.392 1627.51 569.646C1634.57 566.508 1640.85 563.174 1646.34 559.644L1622.81 496.688C1616.92 500.218 1610.06 503.16 1602.21 505.513Z" fill="white" data-name="02" class="02_622"/>
	<path d="M118.365 368.346C118.365 385.998 120.523 403.06 124.837 419.535C129.152 436.009 135.82 450.719 144.842 463.663C154.256 476.215 166.219 486.413 180.733 494.258C195.246 501.711 212.505 505.437 232.509 505.437C252.122 505.437 268.988 501.711 283.109 494.258C297.623 486.413 309.586 476.215 319 463.663C328.414 451.111 335.278 436.598 339.593 420.123C344.3 403.649 346.654 386.586 346.654 368.935C346.654 351.676 344.496 334.809 340.181 318.335C335.867 301.86 329.002 287.347 319.588 274.795C310.174 261.851 298.211 251.653 283.698 244.2C269.577 236.355 252.514 232.433 232.509 232.433C212.505 232.433 195.246 236.355 180.733 244.2C166.612 251.653 154.844 261.655 145.43 274.207C136.409 286.759 129.544 301.272 124.837 317.747C120.523 333.829 118.365 350.695 118.365 368.346Z" fill="white" data-name="03" class="03_689"/>
	<path d="M1022.35 366.325C1025.88 373.778 1027.65 382.407 1027.65 392.213H893.497C895.459 374.562 902.127 360.441 913.502 349.851C925.269 338.868 941.548 333.18 962.337 332.788C970.966 332.788 979.204 333.965 987.049 336.318C995.286 338.672 1002.35 342.398 1008.23 347.497C1014.11 352.204 1018.82 358.48 1022.35 366.325Z" fill="white" data-name="03" class="03_689"/>
	<path fill-rule="evenodd" clip-rule="evenodd" d="M1650 0H0V767H1650V0ZM163.67 37.093C178.575 37.093 190.735 41.4077 200.149 50.0372C209.563 58.2744 214.27 69.8457 214.27 84.7511C214.27 100.049 209.563 112.012 200.149 120.642C190.735 129.271 178.575 133.586 163.67 133.586C148.372 133.586 136.016 129.271 126.602 120.642C117.188 112.012 112.481 100.049 112.481 84.7511C112.481 69.8457 117.188 58.2744 126.602 50.0372C136.016 41.4077 148.372 37.093 163.67 37.093ZM305.467 37.093C320.373 37.093 332.533 41.4077 341.947 50.0372C351.361 58.2744 356.068 69.8457 356.068 84.7511C356.068 100.049 351.361 112.012 341.947 120.642C332.533 129.271 320.373 133.586 305.467 133.586C290.562 133.586 278.402 129.271 268.988 120.642C259.574 112.012 254.867 100.049 254.867 84.7511C254.867 69.8457 259.574 58.2744 268.988 50.0372C278.402 41.4077 290.562 37.093 305.467 37.093ZM233.098 156.533C265.654 156.533 294.288 161.828 319 172.419C344.104 182.617 365.089 197.13 381.956 215.958C399.215 234.394 412.159 256.556 420.788 282.444C429.81 308.333 434.321 336.771 434.321 367.758C434.321 398.353 429.81 426.791 420.788 453.072C411.767 479.353 398.626 502.103 381.367 521.323C364.109 540.543 342.927 555.645 317.823 566.628C292.719 577.219 263.889 582.318 231.333 581.926C198.776 581.926 169.946 576.63 144.842 566.04C120.13 555.057 99.3411 540.151 82.4744 521.323C65.6078 502.495 52.6636 480.137 43.6419 454.249C35.0124 428.36 30.6977 400.119 30.6977 369.523C30.6977 338.928 35.2085 310.686 44.2303 284.798C53.252 258.517 66.1961 235.963 83.0628 217.135C100.322 197.915 121.503 183.009 146.607 172.419C171.711 161.828 200.541 156.533 233.098 156.533ZM560.939 307.489C586.043 277.286 617.031 261.988 653.902 261.596C673.907 261.203 691.558 264.538 706.855 271.598C722.153 278.266 734.509 287.484 743.923 299.252C755.298 312.98 763.143 329.062 767.458 347.498C771.773 365.542 773.93 385.742 773.93 408.1V578.14H690.381V414.573C690.381 403.59 689.204 393.195 686.851 383.389C684.89 373.19 681.359 364.561 676.26 357.5C671.161 350.048 664.297 344.556 655.667 341.026C647.43 337.496 638.016 335.731 627.425 335.731C614.089 336.123 602.714 339.065 593.3 344.556C584.278 350.048 577.414 357.108 572.707 365.738C568 373.975 564.666 383.389 562.704 393.979C561.135 404.178 560.351 414.573 560.351 425.163V578.14H477.39V268.068H556.821L560.939 307.489ZM993.521 509.888C985.283 513.418 975.281 515.183 963.514 515.183C940.763 515.183 923.7 508.907 912.325 496.355C900.95 483.411 894.478 467.721 892.909 449.286H1104.72C1109.04 423.397 1109.04 399.078 1104.72 376.327C1100.8 353.577 1092.76 333.768 1080.6 316.902C1068.83 299.643 1052.75 286.11 1032.35 276.304C1011.96 266.498 987.833 261.595 959.983 261.595C936.056 261.595 914.679 265.517 895.851 273.362C877.415 281.207 861.921 292.386 849.369 306.899C836.817 321.02 827.011 337.887 819.951 357.499C813.283 377.112 809.948 398.489 809.948 421.632C809.948 472.624 822.697 512.241 848.193 540.483C874.081 568.725 912.129 582.846 962.337 582.846C978.811 582.846 994.501 581.277 1009.41 578.139C1024.31 574.609 1037.84 569.117 1050 561.665C1062.56 554.212 1073.15 544.602 1081.78 532.834C1090.8 521.067 1097.47 507.142 1101.78 491.06H1014.7C1009.21 499.689 1002.15 505.965 993.521 509.888ZM1260.68 328.081C1254.79 328.081 1249.11 328.473 1243.62 329.258C1238.52 330.042 1233.81 331.415 1229.49 333.376C1225.18 334.945 1221.65 337.691 1218.9 341.613C1216.16 345.144 1214.98 349.851 1215.37 355.734C1215.77 362.403 1218.32 367.698 1223.02 371.62C1228.12 375.543 1235.18 378.681 1244.2 381.034C1252.83 383.388 1262.44 385.741 1273.03 388.095C1283.62 390.056 1294.02 392.213 1304.22 394.567C1314.42 396.92 1324.42 399.666 1334.22 402.804C1344.03 405.942 1352.66 409.865 1360.11 414.572C1370.31 420.848 1378.74 429.673 1385.41 441.048C1392.08 452.423 1395.22 466.348 1394.83 482.823C1394.83 498.905 1392.08 512.83 1386.59 524.597C1381.49 535.972 1374.43 545.779 1365.41 554.016C1354.03 564.214 1339.72 571.667 1322.46 576.374C1305.2 580.689 1287.74 582.846 1270.09 582.846C1249.7 582.846 1230.87 580.689 1213.61 576.374C1196.74 572.059 1181.25 564.41 1167.13 553.427C1156.93 545.19 1148.3 535.188 1141.24 523.42C1134.57 511.261 1130.65 496.747 1129.47 479.881H1213.02C1215.37 493.217 1221.85 502.435 1232.44 507.534C1243.42 512.634 1256.36 515.183 1271.27 515.183C1275.58 515.183 1280.09 514.987 1284.8 514.595C1289.9 513.81 1294.41 512.634 1298.33 511.065C1302.65 509.103 1306.18 506.358 1308.92 502.827C1312.06 498.905 1313.63 494.786 1313.63 490.471C1314.02 480.273 1310.49 473.017 1303.04 468.702C1295.98 464.387 1288.33 461.445 1280.09 459.876C1271.86 457.915 1263.03 455.954 1253.62 453.992L1225.38 448.109C1216.35 446.147 1207.33 443.794 1198.31 441.048C1189.29 437.91 1181.05 433.792 1173.6 428.692C1162.22 421.632 1152.61 412.218 1144.77 400.451C1137.32 388.683 1134.18 373.189 1135.35 353.969C1136.14 337.103 1140.26 322.785 1147.71 311.018C1155.56 298.858 1165.17 289.248 1176.54 282.188C1188.31 274.735 1201.45 269.44 1215.96 266.302C1230.87 263.164 1245.97 261.595 1261.27 261.595C1278.13 261.595 1294.02 263.36 1308.92 266.89C1323.83 270.42 1336.77 276.108 1347.76 283.953C1359.13 291.798 1368.15 301.996 1374.82 314.548C1381.88 327.1 1385.81 342.398 1386.59 360.441H1306.57C1305 347.497 1299.9 338.868 1291.27 334.553C1283.04 330.238 1272.84 328.081 1260.68 328.081ZM1602.21 505.513C1594.37 507.867 1587.31 509.044 1581.03 509.044C1571.62 509.044 1563.77 507.475 1557.5 504.337C1551.61 500.806 1546.91 496.296 1543.38 490.804C1540.24 485.313 1538.08 479.429 1536.9 473.153C1536.12 466.485 1535.73 459.62 1535.73 452.56V340.769H1626.93V268.4H1535.73V183.674H1452.77V268.4H1405.7V340.769H1452.77V471.976C1452.77 489.235 1454.73 504.729 1458.65 518.458C1462.97 532.186 1469.44 543.365 1478.07 551.995C1487.48 562.193 1499.25 569.842 1513.37 574.941C1527.88 580.041 1544.55 582.59 1563.38 582.59C1569.27 582.59 1575.74 582.198 1582.8 581.413C1589.86 580.629 1597.31 579.256 1605.16 577.295C1613.39 574.941 1620.85 572.392 1627.51 569.646C1634.57 566.508 1640.85 563.174 1646.34 559.644L1622.81 496.688C1616.92 500.218 1610.06 503.16 1602.21 505.513Z" fill="white" data-name="03" class="03_689"/>
	<path d="M114.144 368.09C114.144 386.134 116.498 403.393 121.205 419.867C126.304 435.949 133.561 450.266 142.975 462.818C152.781 475.37 165.137 485.569 180.042 493.414C194.948 500.866 212.403 504.789 232.407 505.181C251.627 505.573 268.69 502.239 283.596 495.179C298.501 487.726 310.857 477.724 320.663 465.172C330.469 452.228 337.922 437.518 343.021 421.044C348.12 404.177 350.67 386.722 350.67 368.679C350.67 351.028 348.12 333.965 343.021 317.49C338.314 301.016 331.058 286.503 321.251 273.951C311.837 261.007 299.678 250.808 284.772 243.355C269.867 235.903 252.412 232.176 232.407 232.176C212.795 232.176 195.536 235.903 180.63 243.355C165.725 250.808 153.369 260.81 143.563 273.362C133.757 285.914 126.304 300.428 121.205 316.902C116.498 332.984 114.144 350.047 114.144 368.09Z" fill="white" data-name="04" class="04_571"/>
	<path d="M1022.35 366.325C1025.88 373.778 1027.65 382.407 1027.65 392.213H893.497C895.459 374.562 902.127 360.441 913.502 349.851C925.269 338.868 941.548 333.18 962.337 332.788C970.966 332.788 979.203 333.965 987.048 336.318C995.286 338.672 1002.35 342.398 1008.23 347.497C1014.11 352.204 1018.82 358.48 1022.35 366.325Z" fill="white" data-name="04" class="04_571"/>
	<path fill-rule="evenodd" clip-rule="evenodd" d="M1650 0H0V767H1650V0ZM232.996 156.276C264.768 156.276 293.402 161.376 318.898 171.574C344.394 181.772 365.968 196.286 383.619 215.114C401.27 233.549 414.803 255.711 424.217 281.6C433.631 307.488 438.337 336.122 438.337 367.502C438.337 398.097 433.631 426.535 424.217 452.816C414.803 479.097 401.27 501.847 383.619 521.067C365.968 540.287 344.198 555.389 318.31 566.372C292.813 576.962 263.787 582.062 231.23 581.669C198.674 581.669 169.648 576.374 144.151 565.783C119.048 554.8 97.67 539.895 80.0188 521.067C62.7599 502.239 49.4235 479.881 40.0096 453.993C30.9878 428.104 26.477 399.862 26.477 369.267C26.477 337.887 31.184 309.253 40.5979 283.365C50.4041 257.084 64.1328 234.53 81.784 215.702C99.8274 196.874 121.597 182.361 147.093 172.162C172.589 161.572 201.224 156.276 232.996 156.276ZM560.939 307.489C586.043 277.286 617.031 261.988 653.902 261.596C673.907 261.204 691.558 264.538 706.855 271.598C722.153 278.266 734.509 287.484 743.923 299.252C755.298 312.98 763.143 329.062 767.458 347.498C771.773 365.542 773.93 385.742 773.93 408.1V578.14H690.381V414.573C690.381 403.59 689.204 393.195 686.851 383.389C684.89 373.19 681.359 364.561 676.26 357.5C671.161 350.048 664.297 344.556 655.667 341.026C647.43 337.496 638.016 335.731 627.425 335.731C614.089 336.123 602.714 339.065 593.3 344.556C584.278 350.048 577.414 357.108 572.707 365.738C568 373.975 564.665 383.389 562.704 393.98C561.135 404.178 560.351 414.573 560.351 425.163V578.14H477.39V268.068H556.821L560.939 307.489ZM993.521 509.888C985.283 513.418 975.281 515.183 963.514 515.183C940.763 515.183 923.7 508.907 912.325 496.355C900.95 483.411 894.478 467.721 892.909 449.286H1104.72C1109.04 423.397 1109.04 399.078 1104.72 376.327C1100.8 353.577 1092.76 333.768 1080.6 316.902C1068.83 299.643 1052.75 286.11 1032.35 276.304C1011.96 266.498 987.833 261.595 959.983 261.595C936.056 261.595 914.679 265.517 895.851 273.362C877.415 281.207 861.921 292.386 849.369 306.899C836.817 321.02 827.011 337.887 819.951 357.499C813.283 377.112 809.948 398.489 809.948 421.632C809.948 472.624 822.697 512.241 848.193 540.483C874.081 568.725 912.129 582.846 962.337 582.846C978.811 582.846 994.501 581.277 1009.41 578.139C1024.31 574.609 1037.84 569.117 1050 561.665C1062.56 554.212 1073.15 544.602 1081.78 532.834C1090.8 521.067 1097.47 507.142 1101.78 491.06H1014.7C1009.21 499.689 1002.15 505.965 993.521 509.888ZM1260.5 327.416C1254.22 327.416 1248.34 327.809 1242.85 328.593C1237.75 328.985 1233.04 330.162 1228.73 332.123C1224.41 334.085 1220.88 337.026 1218.13 340.949C1215.39 344.479 1214.21 349.186 1214.6 355.07C1215 361.738 1217.55 367.033 1222.25 370.956C1227.35 374.878 1234.41 378.016 1243.43 380.37C1252.46 382.723 1262.07 385.077 1272.26 387.43C1282.86 389.392 1293.25 391.549 1303.45 393.902C1314.04 396.256 1324.04 399.002 1333.46 402.14C1343.26 405.278 1351.89 409.2 1359.34 413.907C1369.54 420.183 1377.78 428.812 1384.06 439.795C1390.33 450.386 1393.67 464.507 1394.06 482.158C1394.45 498.24 1391.9 512.165 1386.41 523.933C1381.31 535.308 1374.05 545.114 1364.64 553.351C1354.44 562.765 1342.08 569.826 1327.57 574.533C1313.45 578.847 1298.15 581.397 1281.68 582.181L1275.21 604.54C1294.43 601.794 1310.12 605.52 1322.28 615.719C1334.83 625.917 1340.71 641.019 1339.93 661.023C1339.14 676.321 1334.63 689.265 1326.39 699.856C1318.16 710.839 1308.55 718.684 1297.56 723.391C1287.37 728.882 1275.99 732.02 1263.44 732.805C1250.89 733.982 1234.02 733.589 1212.84 731.628L1213.43 683.97C1226.76 685.539 1237.55 686.127 1245.79 685.735C1254.42 685.343 1261.09 684.166 1265.79 682.205C1270.5 680.244 1273.83 677.694 1275.79 674.556C1277.76 671.418 1278.74 667.692 1278.74 663.377C1279.13 654.747 1275.99 649.256 1269.32 646.902C1262.65 644.549 1255.01 643.176 1246.38 642.784C1240.49 642.392 1234.61 642.195 1228.73 642.195C1223.23 642.588 1218.33 642.784 1214.02 642.784L1231.67 579.24C1219.51 577.278 1207.74 574.14 1196.36 569.826C1185.38 565.511 1175.38 559.823 1166.36 552.763C1156.16 544.526 1147.14 534.523 1139.29 522.756C1131.84 510.596 1127.53 496.083 1126.35 479.216H1212.25C1214.6 492.553 1221.08 501.771 1231.67 506.87C1242.65 511.969 1255.59 514.519 1270.5 514.519C1274.81 514.519 1279.33 514.323 1284.03 513.93C1289.13 513.146 1293.64 511.969 1297.56 510.4C1301.88 508.439 1305.41 505.889 1308.16 502.751C1311.29 499.613 1312.86 495.298 1312.86 489.807C1312.86 479.216 1309.33 471.96 1302.27 468.037C1295.21 464.115 1287.76 461.173 1279.91 459.212C1271.28 456.858 1262.26 454.897 1252.85 453.328L1224.61 447.444C1215.58 445.483 1206.56 443.13 1197.54 440.384C1188.52 437.246 1180.28 433.127 1172.83 428.028C1161.45 420.967 1151.84 411.554 1144 399.786C1136.55 388.019 1133.41 372.525 1134.59 353.305C1135.37 336.438 1139.49 322.121 1146.94 310.354C1154.79 298.194 1164.4 288.584 1175.77 281.523C1187.54 274.071 1200.68 268.775 1215.19 265.637C1230.1 262.499 1245.4 260.93 1261.09 260.93C1277.56 260.93 1293.25 262.695 1308.16 266.226C1323.06 269.756 1336 275.443 1346.99 283.288C1358.36 291.133 1367.38 301.332 1374.05 313.884C1381.11 326.436 1385.04 341.733 1385.82 359.777H1305.8C1304.63 346.44 1299.53 337.811 1290.5 333.888C1281.48 329.574 1271.48 327.416 1260.5 327.416ZM1602.21 505.513C1594.37 507.867 1587.31 509.044 1581.03 509.044C1571.62 509.044 1563.77 507.475 1557.5 504.337C1551.61 500.807 1546.91 496.296 1543.38 490.804C1540.24 485.313 1538.08 479.429 1536.9 473.153C1536.12 466.485 1535.73 459.62 1535.73 452.56V340.769H1626.93V268.4H1535.73V183.674H1452.77V268.4H1405.7V340.769H1452.77V471.976C1452.77 489.235 1454.73 504.729 1458.65 518.458C1462.97 532.186 1469.44 543.365 1478.07 551.995C1487.48 562.193 1499.25 569.842 1513.37 574.941C1527.88 580.041 1544.55 582.59 1563.38 582.59C1569.27 582.59 1575.74 582.198 1582.8 581.413C1589.86 580.629 1597.31 579.256 1605.16 577.295C1613.39 574.941 1620.85 572.392 1627.51 569.646C1634.57 566.508 1640.85 563.174 1646.34 559.644L1622.81 496.688C1616.92 500.218 1610.06 503.16 1602.21 505.513Z" fill="white" data-name="04" class="04_571"/>
</g>
<defs><clipPath id="clip_0_234"><rect width="1650" height="767.44"/></clipPath>
</defs>
</svg>