<?xml version="1.0" standalone="no"?>
<!DOCTYPE svg PUBLIC "-//W3C//DTD SVG 20010904//EN"
 "http://www.w3.org/TR/2001/REC-SVG-20010904/DTD/svg10.dtd">
<svg version="1.0" xmlns="http://www.w3.org/2000/svg"
 width="700.000000pt" height="700.000000pt" viewBox="0 0 700.000000 700.000000"
 preserveAspectRatio="xMidYMid meet">
<metadata>
Created by potrace 1.14, written by Peter Selinger 2001-2017
</metadata>
<g transform="translate(0.000000,700.000000) scale(0.100000,-0.100000)"
fill="#000000" stroke="none">
<path d="M3288 6235 c-2 -2 -41 -6 -87 -10 -46 -4 -91 -8 -101 -10 -9 -2 -41
-6 -71 -10 -338 -41 -778 -206 -1071 -401 -218 -145 -424 -338 -566 -529 -47
-64 -68 -95 -124 -185 -138 -223 -259 -507 -318 -747 -5 -24 -14 -60 -19 -80
-11 -42 -14 -58 -36 -188 -18 -106 -22 -137 -32 -270 -15 -189 -8 -639 11
-743 2 -9 7 -42 11 -72 13 -103 64 -335 98 -450 139 -465 426 -915 750 -1177
40 -32 74 -60 77 -64 3 -3 36 -27 75 -55 378 -268 763 -409 1265 -461 185 -20
730 -6 865 21 11 2 40 7 65 10 129 17 385 93 540 159 101 43 247 118 292 149
14 10 29 18 33 18 26 0 278 193 378 289 37 36 71 68 75 71 13 9 156 174 177
204 11 16 29 40 41 55 107 133 259 422 343 651 58 157 131 438 145 560 3 25 9
63 12 85 42 284 37 727 -12 1028 -12 74 -15 93 -19 107 -2 8 -7 31 -10 50 -19
114 -98 371 -155 505 -130 306 -286 540 -515 770 -244 247 -470 396 -789 524
-107 43 -253 92 -316 106 -8 1 -33 8 -55 13 -22 6 -53 13 -70 16 -16 2 -56 10
-87 16 -60 11 -93 16 -173 25 -27 4 -63 8 -80 11 -35 6 -542 14 -547 9z m362
-979 c129 -11 147 -14 257 -42 436 -108 776 -424 961 -894 46 -116 104 -334
127 -480 33 -210 26 -565 -15 -760 -5 -25 -12 -57 -14 -72 -17 -107 -88 -311
-157 -453 -109 -225 -252 -403 -432 -537 -202 -149 -396 -226 -646 -255 -124
-14 -432 -7 -501 12 -8 2 -30 7 -48 10 -328 55 -663 272 -867 560 -128 180
-238 433 -284 655 -40 196 -52 314 -52 520 1 201 8 279 47 475 145 729 649
1207 1329 1261 44 4 81 7 82 8 4 3 137 -2 213 -8z"/>
</g>
</svg>
